<mxfile host="app.diagrams.net" agent="Mozilla/5.0 (Windows NT 10.0; Win64; x64) AppleWebKit/537.36 (KHTML, like Gecko) Chrome/135.0.0.0 Safari/537.36 Edg/135.0.0.0" version="26.2.8">
  <diagram id="C5RBs43oDa-KdzZeNtuy" name="Page-1">
    <mxGraphModel dx="2155" dy="3259" grid="1" gridSize="10" guides="1" tooltips="1" connect="1" arrows="1" fold="1" page="1" pageScale="1" pageWidth="827" pageHeight="1169" math="0" shadow="0">
      <root>
        <mxCell id="WIyWlLk6GJQsqaUBKTNV-0" />
        <mxCell id="WIyWlLk6GJQsqaUBKTNV-1" parent="WIyWlLk6GJQsqaUBKTNV-0" />
        <mxCell id="WIyWlLk6GJQsqaUBKTNV-2" value="" style="rounded=0;html=1;jettySize=auto;orthogonalLoop=1;fontSize=11;endArrow=block;endFill=0;endSize=8;strokeWidth=1;shadow=0;labelBackgroundColor=none;edgeStyle=orthogonalEdgeStyle;" parent="WIyWlLk6GJQsqaUBKTNV-1" source="WIyWlLk6GJQsqaUBKTNV-3" edge="1">
          <mxGeometry relative="1" as="geometry">
            <mxPoint x="220" y="170" as="targetPoint" />
          </mxGeometry>
        </mxCell>
        <mxCell id="WIyWlLk6GJQsqaUBKTNV-3" value="&lt;div&gt;&lt;a style=&quot;background-color: transparent;&quot; href=&quot;https://github.com/Jasmin1117/Integrative-Programming-and-Technologies-Act/blob/cc8234874aca94a80bd389ca6543b838aa12877f/connectly_project/posts/views.py#L90&quot;&gt;User log in&amp;nbsp;&lt;/a&gt;&lt;/div&gt;&lt;div&gt;https://127.0.0.1:8000/accounts/login/&lt;br&gt;&lt;/div&gt;" style="rounded=1;whiteSpace=wrap;html=1;fontSize=12;glass=0;strokeWidth=1;shadow=0;" parent="WIyWlLk6GJQsqaUBKTNV-1" vertex="1">
          <mxGeometry x="105" y="40" width="230" height="80" as="geometry" />
        </mxCell>
        <mxCell id="_X7CinvfT8mSmvI7YNX2-6" value="Yes" style="edgeStyle=orthogonalEdgeStyle;rounded=0;orthogonalLoop=1;jettySize=auto;html=1;" parent="WIyWlLk6GJQsqaUBKTNV-1" target="WIyWlLk6GJQsqaUBKTNV-3" edge="1">
          <mxGeometry relative="1" as="geometry">
            <mxPoint x="219.99999999999977" y="-20" as="sourcePoint" />
          </mxGeometry>
        </mxCell>
        <mxCell id="_X7CinvfT8mSmvI7YNX2-102" value="No" style="edgeLabel;html=1;align=center;verticalAlign=middle;resizable=0;points=[];" parent="_X7CinvfT8mSmvI7YNX2-6" vertex="1" connectable="0">
          <mxGeometry x="-0.1351" y="4" relative="1" as="geometry">
            <mxPoint x="-4" y="4" as="offset" />
          </mxGeometry>
        </mxCell>
        <mxCell id="_X7CinvfT8mSmvI7YNX2-13" value="" style="edgeStyle=orthogonalEdgeStyle;rounded=0;orthogonalLoop=1;jettySize=auto;html=1;" parent="WIyWlLk6GJQsqaUBKTNV-1" source="_X7CinvfT8mSmvI7YNX2-11" target="_X7CinvfT8mSmvI7YNX2-12" edge="1">
          <mxGeometry relative="1" as="geometry" />
        </mxCell>
        <mxCell id="_X7CinvfT8mSmvI7YNX2-11" value="Enter username&amp;nbsp;&lt;div&gt;and password&lt;/div&gt;" style="shape=parallelogram;perimeter=parallelogramPerimeter;whiteSpace=wrap;html=1;fixedSize=1;" parent="WIyWlLk6GJQsqaUBKTNV-1" vertex="1">
          <mxGeometry x="160" y="170" width="120" height="60" as="geometry" />
        </mxCell>
        <mxCell id="_X7CinvfT8mSmvI7YNX2-15" value="" style="edgeStyle=orthogonalEdgeStyle;rounded=0;orthogonalLoop=1;jettySize=auto;html=1;" parent="WIyWlLk6GJQsqaUBKTNV-1" source="_X7CinvfT8mSmvI7YNX2-12" target="_X7CinvfT8mSmvI7YNX2-14" edge="1">
          <mxGeometry relative="1" as="geometry" />
        </mxCell>
        <mxCell id="_X7CinvfT8mSmvI7YNX2-16" value="Yes" style="edgeLabel;html=1;align=center;verticalAlign=middle;resizable=0;points=[];" parent="_X7CinvfT8mSmvI7YNX2-15" vertex="1" connectable="0">
          <mxGeometry x="0.0786" y="1" relative="1" as="geometry">
            <mxPoint as="offset" />
          </mxGeometry>
        </mxCell>
        <mxCell id="_X7CinvfT8mSmvI7YNX2-30" style="edgeStyle=orthogonalEdgeStyle;rounded=0;orthogonalLoop=1;jettySize=auto;html=1;" parent="WIyWlLk6GJQsqaUBKTNV-1" source="_X7CinvfT8mSmvI7YNX2-12" target="_X7CinvfT8mSmvI7YNX2-24" edge="1">
          <mxGeometry relative="1" as="geometry" />
        </mxCell>
        <mxCell id="_X7CinvfT8mSmvI7YNX2-31" value="No" style="edgeLabel;html=1;align=center;verticalAlign=middle;resizable=0;points=[];" parent="_X7CinvfT8mSmvI7YNX2-30" vertex="1" connectable="0">
          <mxGeometry x="-0.1577" y="2" relative="1" as="geometry">
            <mxPoint as="offset" />
          </mxGeometry>
        </mxCell>
        <mxCell id="_X7CinvfT8mSmvI7YNX2-12" value="Verify username and password" style="rhombus;whiteSpace=wrap;html=1;" parent="WIyWlLk6GJQsqaUBKTNV-1" vertex="1">
          <mxGeometry x="170" y="295" width="100" height="110" as="geometry" />
        </mxCell>
        <mxCell id="_X7CinvfT8mSmvI7YNX2-18" value="" style="edgeStyle=orthogonalEdgeStyle;rounded=0;orthogonalLoop=1;jettySize=auto;html=1;" parent="WIyWlLk6GJQsqaUBKTNV-1" source="_X7CinvfT8mSmvI7YNX2-14" target="_X7CinvfT8mSmvI7YNX2-17" edge="1">
          <mxGeometry relative="1" as="geometry" />
        </mxCell>
        <mxCell id="_X7CinvfT8mSmvI7YNX2-19" value="Yes" style="edgeLabel;html=1;align=center;verticalAlign=middle;resizable=0;points=[];" parent="_X7CinvfT8mSmvI7YNX2-18" vertex="1" connectable="0">
          <mxGeometry x="-0.3925" y="3" relative="1" as="geometry">
            <mxPoint as="offset" />
          </mxGeometry>
        </mxCell>
        <mxCell id="_X7CinvfT8mSmvI7YNX2-21" value="" style="edgeStyle=orthogonalEdgeStyle;rounded=0;orthogonalLoop=1;jettySize=auto;html=1;" parent="WIyWlLk6GJQsqaUBKTNV-1" source="_X7CinvfT8mSmvI7YNX2-14" target="_X7CinvfT8mSmvI7YNX2-32" edge="1">
          <mxGeometry relative="1" as="geometry">
            <mxPoint x="340" y="540" as="targetPoint" />
          </mxGeometry>
        </mxCell>
        <mxCell id="_X7CinvfT8mSmvI7YNX2-22" value="No" style="edgeLabel;html=1;align=center;verticalAlign=middle;resizable=0;points=[];" parent="_X7CinvfT8mSmvI7YNX2-21" vertex="1" connectable="0">
          <mxGeometry x="-0.2327" y="1" relative="1" as="geometry">
            <mxPoint y="-9" as="offset" />
          </mxGeometry>
        </mxCell>
        <mxCell id="_X7CinvfT8mSmvI7YNX2-14" value="Is Super User?" style="rhombus;whiteSpace=wrap;html=1;" parent="WIyWlLk6GJQsqaUBKTNV-1" vertex="1">
          <mxGeometry x="170" y="485" width="100" height="110" as="geometry" />
        </mxCell>
        <mxCell id="_X7CinvfT8mSmvI7YNX2-17" value="Can access&amp;nbsp;&lt;div&gt;http://127.0.0.1:8000/admin&lt;/div&gt;" style="whiteSpace=wrap;html=1;" parent="WIyWlLk6GJQsqaUBKTNV-1" vertex="1">
          <mxGeometry x="135" y="690" width="170" height="80" as="geometry" />
        </mxCell>
        <mxCell id="_X7CinvfT8mSmvI7YNX2-24" value="Invalid username or password." style="shape=parallelogram;perimeter=parallelogramPerimeter;whiteSpace=wrap;html=1;fixedSize=1;" parent="WIyWlLk6GJQsqaUBKTNV-1" vertex="1">
          <mxGeometry x="370" y="320" width="120" height="60" as="geometry" />
        </mxCell>
        <mxCell id="cD0JJt_eKA0-qdBhpxKM-0" style="edgeStyle=orthogonalEdgeStyle;rounded=0;orthogonalLoop=1;jettySize=auto;html=1;" edge="1" parent="WIyWlLk6GJQsqaUBKTNV-1" source="_X7CinvfT8mSmvI7YNX2-32" target="_X7CinvfT8mSmvI7YNX2-52">
          <mxGeometry relative="1" as="geometry" />
        </mxCell>
        <mxCell id="_X7CinvfT8mSmvI7YNX2-32" value="User can access https://127.0.0.1:8000/posts/" style="shape=parallelogram;perimeter=parallelogramPerimeter;whiteSpace=wrap;html=1;fixedSize=1;" parent="WIyWlLk6GJQsqaUBKTNV-1" vertex="1">
          <mxGeometry x="340" y="510" width="190" height="60" as="geometry" />
        </mxCell>
        <mxCell id="_X7CinvfT8mSmvI7YNX2-90" value="" style="edgeStyle=orthogonalEdgeStyle;rounded=0;orthogonalLoop=1;jettySize=auto;html=1;" parent="WIyWlLk6GJQsqaUBKTNV-1" source="_X7CinvfT8mSmvI7YNX2-52" target="_X7CinvfT8mSmvI7YNX2-95" edge="1">
          <mxGeometry relative="1" as="geometry">
            <mxPoint x="1110" y="540" as="targetPoint" />
          </mxGeometry>
        </mxCell>
        <mxCell id="_X7CinvfT8mSmvI7YNX2-113" value="No" style="edgeLabel;html=1;align=center;verticalAlign=middle;resizable=0;points=[];" parent="_X7CinvfT8mSmvI7YNX2-90" vertex="1" connectable="0">
          <mxGeometry x="0.0188" y="2" relative="1" as="geometry">
            <mxPoint as="offset" />
          </mxGeometry>
        </mxCell>
        <mxCell id="cD0JJt_eKA0-qdBhpxKM-2" value="" style="edgeStyle=orthogonalEdgeStyle;rounded=0;orthogonalLoop=1;jettySize=auto;html=1;" edge="1" parent="WIyWlLk6GJQsqaUBKTNV-1" source="_X7CinvfT8mSmvI7YNX2-52" target="cD0JJt_eKA0-qdBhpxKM-1">
          <mxGeometry relative="1" as="geometry" />
        </mxCell>
        <mxCell id="_X7CinvfT8mSmvI7YNX2-52" value="Is url patterns&lt;div&gt;&lt;a href=&quot;https://github.com/Jasmin1117/Integrative-Programming-and-Technologies-Act/blob/2461e86800dc4b899f0e4c06d2805c2391d48731/connectly_project/posts/urls.py#L21&quot;&gt;http://127.0.0.1:8000/posts/&lt;/a&gt;&lt;/div&gt;&lt;div&gt;?&lt;/div&gt;" style="rhombus;whiteSpace=wrap;html=1;" parent="WIyWlLk6GJQsqaUBKTNV-1" vertex="1">
          <mxGeometry x="570" y="442.5" width="190" height="195" as="geometry" />
        </mxCell>
        <mxCell id="_X7CinvfT8mSmvI7YNX2-95" value="Page not found" style="shape=parallelogram;perimeter=parallelogramPerimeter;whiteSpace=wrap;html=1;fixedSize=1;" parent="WIyWlLk6GJQsqaUBKTNV-1" vertex="1">
          <mxGeometry x="900" y="485" width="210" height="110" as="geometry" />
        </mxCell>
        <mxCell id="_X7CinvfT8mSmvI7YNX2-98" style="edgeStyle=orthogonalEdgeStyle;rounded=0;orthogonalLoop=1;jettySize=auto;html=1;" parent="WIyWlLk6GJQsqaUBKTNV-1" source="_X7CinvfT8mSmvI7YNX2-96" target="_X7CinvfT8mSmvI7YNX2-97" edge="1">
          <mxGeometry relative="1" as="geometry" />
        </mxCell>
        <mxCell id="_X7CinvfT8mSmvI7YNX2-96" value="Start" style="strokeWidth=2;html=1;shape=mxgraph.flowchart.start_1;whiteSpace=wrap;" parent="WIyWlLk6GJQsqaUBKTNV-1" vertex="1">
          <mxGeometry x="170" y="-210" width="100" height="60" as="geometry" />
        </mxCell>
        <mxCell id="_X7CinvfT8mSmvI7YNX2-103" style="edgeStyle=orthogonalEdgeStyle;rounded=0;orthogonalLoop=1;jettySize=auto;html=1;" parent="WIyWlLk6GJQsqaUBKTNV-1" source="_X7CinvfT8mSmvI7YNX2-97" target="_X7CinvfT8mSmvI7YNX2-101" edge="1">
          <mxGeometry relative="1" as="geometry" />
        </mxCell>
        <mxCell id="_X7CinvfT8mSmvI7YNX2-104" value="No" style="edgeLabel;html=1;align=center;verticalAlign=middle;resizable=0;points=[];" parent="_X7CinvfT8mSmvI7YNX2-103" vertex="1" connectable="0">
          <mxGeometry x="0.0491" y="-4" relative="1" as="geometry">
            <mxPoint as="offset" />
          </mxGeometry>
        </mxCell>
        <mxCell id="_X7CinvfT8mSmvI7YNX2-97" value="Already have an account?" style="rhombus;whiteSpace=wrap;html=1;" parent="WIyWlLk6GJQsqaUBKTNV-1" vertex="1">
          <mxGeometry x="180" y="-100" width="80" height="80" as="geometry" />
        </mxCell>
        <mxCell id="_X7CinvfT8mSmvI7YNX2-106" value="" style="edgeStyle=orthogonalEdgeStyle;rounded=0;orthogonalLoop=1;jettySize=auto;html=1;" parent="WIyWlLk6GJQsqaUBKTNV-1" source="_X7CinvfT8mSmvI7YNX2-101" edge="1">
          <mxGeometry relative="1" as="geometry">
            <mxPoint x="725" y="-60.00000000000023" as="targetPoint" />
          </mxGeometry>
        </mxCell>
        <mxCell id="_X7CinvfT8mSmvI7YNX2-101" value="&lt;a href=&quot;https://github.com/Jasmin1117/Integrative-Programming-and-Technologies-Act/blob/cc8234874aca94a80bd389ca6543b838aa12877f/connectly_project/posts/views.py#L54&quot;&gt;User registration&lt;/a&gt;&amp;nbsp;&lt;br&gt;&lt;div&gt;https://127.0.0.1:8000/post/users/&lt;/div&gt;" style="rounded=1;whiteSpace=wrap;html=1;fontSize=12;glass=0;strokeWidth=1;shadow=0;" parent="WIyWlLk6GJQsqaUBKTNV-1" vertex="1">
          <mxGeometry x="350" y="-100" width="230" height="80" as="geometry" />
        </mxCell>
        <mxCell id="_X7CinvfT8mSmvI7YNX2-109" value="" style="edgeStyle=orthogonalEdgeStyle;rounded=0;orthogonalLoop=1;jettySize=auto;html=1;" parent="WIyWlLk6GJQsqaUBKTNV-1" source="_X7CinvfT8mSmvI7YNX2-107" target="_X7CinvfT8mSmvI7YNX2-108" edge="1">
          <mxGeometry relative="1" as="geometry" />
        </mxCell>
        <mxCell id="_X7CinvfT8mSmvI7YNX2-107" value="User enter the following:&lt;div&gt;&lt;br&gt;&lt;/div&gt;&lt;div&gt;&lt;a href=&quot;https://github.com/Jasmin1117/Integrative-Programming-and-Technologies-Act/blob/2461e86800dc4b899f0e4c06d2805c2391d48731/connectly_project/posts/views.py#L50-L52&quot;&gt;username,&lt;br&gt;email,&lt;br&gt;password,&lt;/a&gt;&lt;/div&gt;" style="shape=parallelogram;perimeter=parallelogramPerimeter;whiteSpace=wrap;html=1;fixedSize=1;" parent="WIyWlLk6GJQsqaUBKTNV-1" vertex="1">
          <mxGeometry x="720" y="-100" width="200" height="85" as="geometry" />
        </mxCell>
        <mxCell id="_X7CinvfT8mSmvI7YNX2-111" value="" style="edgeStyle=orthogonalEdgeStyle;rounded=0;orthogonalLoop=1;jettySize=auto;html=1;" parent="WIyWlLk6GJQsqaUBKTNV-1" source="_X7CinvfT8mSmvI7YNX2-108" target="_X7CinvfT8mSmvI7YNX2-110" edge="1">
          <mxGeometry relative="1" as="geometry" />
        </mxCell>
        <mxCell id="_X7CinvfT8mSmvI7YNX2-108" value="&lt;a href=&quot;https://github.com/Jasmin1117/Integrative-Programming-and-Technologies-Act/blob/2461e86800dc4b899f0e4c06d2805c2391d48731/connectly_project/posts/urls.py#L24&quot;&gt;Server registers a new user&lt;/a&gt;" style="whiteSpace=wrap;html=1;" parent="WIyWlLk6GJQsqaUBKTNV-1" vertex="1">
          <mxGeometry x="1040" y="-87.5" width="120" height="60" as="geometry" />
        </mxCell>
        <mxCell id="_X7CinvfT8mSmvI7YNX2-110" value="&lt;a href=&quot;https://github.com/Jasmin1117/Integrative-Programming-and-Technologies-Act/blob/2461e86800dc4b899f0e4c06d2805c2391d48731/connectly_project/posts/views.py#L55&quot;&gt;Is username and password missing?&lt;/a&gt;" style="rhombus;whiteSpace=wrap;html=1;" parent="WIyWlLk6GJQsqaUBKTNV-1" vertex="1">
          <mxGeometry x="1250" y="-126.25" width="160" height="137.5" as="geometry" />
        </mxCell>
        <mxCell id="cD0JJt_eKA0-qdBhpxKM-4" value="" style="edgeStyle=orthogonalEdgeStyle;rounded=0;orthogonalLoop=1;jettySize=auto;html=1;" edge="1" parent="WIyWlLk6GJQsqaUBKTNV-1" source="cD0JJt_eKA0-qdBhpxKM-1" target="cD0JJt_eKA0-qdBhpxKM-3">
          <mxGeometry relative="1" as="geometry" />
        </mxCell>
        <mxCell id="cD0JJt_eKA0-qdBhpxKM-18" value="Yes" style="edgeLabel;html=1;align=center;verticalAlign=middle;resizable=0;points=[];" vertex="1" connectable="0" parent="cD0JJt_eKA0-qdBhpxKM-4">
          <mxGeometry x="-0.1182" y="-1" relative="1" as="geometry">
            <mxPoint as="offset" />
          </mxGeometry>
        </mxCell>
        <mxCell id="cD0JJt_eKA0-qdBhpxKM-28" value="" style="edgeStyle=orthogonalEdgeStyle;rounded=0;orthogonalLoop=1;jettySize=auto;html=1;" edge="1" parent="WIyWlLk6GJQsqaUBKTNV-1" source="cD0JJt_eKA0-qdBhpxKM-1" target="cD0JJt_eKA0-qdBhpxKM-27">
          <mxGeometry relative="1" as="geometry" />
        </mxCell>
        <mxCell id="cD0JJt_eKA0-qdBhpxKM-29" value="No" style="edgeLabel;html=1;align=center;verticalAlign=middle;resizable=0;points=[];" vertex="1" connectable="0" parent="cD0JJt_eKA0-qdBhpxKM-28">
          <mxGeometry x="-0.2152" y="1" relative="1" as="geometry">
            <mxPoint y="-14" as="offset" />
          </mxGeometry>
        </mxCell>
        <mxCell id="cD0JJt_eKA0-qdBhpxKM-1" value="Is url pattern name&amp;nbsp;&lt;div&gt;&#39;&lt;a href=&quot;https://github.com/Jasmin1117/Integrative-Programming-and-Technologies-Act/blob/a0c724d7721e72b1a77a9e88cee2ff3ab92f09ae/connectly_project/posts/urls.py#L19&quot;&gt;hello-world&lt;/a&gt;&#39;?&lt;/div&gt;" style="rhombus;whiteSpace=wrap;html=1;" vertex="1" parent="WIyWlLk6GJQsqaUBKTNV-1">
          <mxGeometry x="570" y="717.5" width="190" height="195" as="geometry" />
        </mxCell>
        <mxCell id="cD0JJt_eKA0-qdBhpxKM-6" value="" style="edgeStyle=orthogonalEdgeStyle;rounded=0;orthogonalLoop=1;jettySize=auto;html=1;" edge="1" parent="WIyWlLk6GJQsqaUBKTNV-1" source="cD0JJt_eKA0-qdBhpxKM-3" target="cD0JJt_eKA0-qdBhpxKM-5">
          <mxGeometry relative="1" as="geometry" />
        </mxCell>
        <mxCell id="cD0JJt_eKA0-qdBhpxKM-19" value="Yes" style="edgeLabel;html=1;align=center;verticalAlign=middle;resizable=0;points=[];" vertex="1" connectable="0" parent="cD0JJt_eKA0-qdBhpxKM-6">
          <mxGeometry x="0.0429" y="2" relative="1" as="geometry">
            <mxPoint as="offset" />
          </mxGeometry>
        </mxCell>
        <mxCell id="cD0JJt_eKA0-qdBhpxKM-3" value="&lt;div&gt;Server initiate&lt;/div&gt;&lt;a href=&quot;https://github.com/Jasmin1117/Integrative-Programming-and-Technologies-Act/blob/cc8234874aca94a80bd389ca6543b838aa12877f/connectly_project/posts/views.py#L424&quot;&gt;HelloWorldView.asView()&lt;/a&gt;" style="whiteSpace=wrap;html=1;" vertex="1" parent="WIyWlLk6GJQsqaUBKTNV-1">
          <mxGeometry x="587" y="1060" width="155" height="60" as="geometry" />
        </mxCell>
        <mxCell id="cD0JJt_eKA0-qdBhpxKM-10" value="" style="edgeStyle=orthogonalEdgeStyle;rounded=0;orthogonalLoop=1;jettySize=auto;html=1;" edge="1" parent="WIyWlLk6GJQsqaUBKTNV-1" source="cD0JJt_eKA0-qdBhpxKM-5" target="cD0JJt_eKA0-qdBhpxKM-9">
          <mxGeometry relative="1" as="geometry" />
        </mxCell>
        <mxCell id="cD0JJt_eKA0-qdBhpxKM-22" value="No" style="edgeLabel;html=1;align=center;verticalAlign=middle;resizable=0;points=[];" vertex="1" connectable="0" parent="cD0JJt_eKA0-qdBhpxKM-10">
          <mxGeometry x="-0.0929" y="-3" relative="1" as="geometry">
            <mxPoint x="1" as="offset" />
          </mxGeometry>
        </mxCell>
        <mxCell id="cD0JJt_eKA0-qdBhpxKM-13" value="" style="edgeStyle=orthogonalEdgeStyle;rounded=0;orthogonalLoop=1;jettySize=auto;html=1;" edge="1" parent="WIyWlLk6GJQsqaUBKTNV-1" source="cD0JJt_eKA0-qdBhpxKM-5" target="cD0JJt_eKA0-qdBhpxKM-12">
          <mxGeometry relative="1" as="geometry" />
        </mxCell>
        <mxCell id="cD0JJt_eKA0-qdBhpxKM-20" value="Yes" style="edgeLabel;html=1;align=center;verticalAlign=middle;resizable=0;points=[];" vertex="1" connectable="0" parent="cD0JJt_eKA0-qdBhpxKM-13">
          <mxGeometry x="-0.3375" y="-4" relative="1" as="geometry">
            <mxPoint as="offset" />
          </mxGeometry>
        </mxCell>
        <mxCell id="cD0JJt_eKA0-qdBhpxKM-5" value="Is HTTP Status code GET?" style="rhombus;whiteSpace=wrap;html=1;" vertex="1" parent="WIyWlLk6GJQsqaUBKTNV-1">
          <mxGeometry x="624.5" y="1190" width="80" height="80" as="geometry" />
        </mxCell>
        <mxCell id="cD0JJt_eKA0-qdBhpxKM-9" value="&lt;div&gt;Forbidden (403)&lt;/div&gt;&lt;div&gt;CSRF verification failed. Request aborted.&lt;/div&gt;" style="shape=parallelogram;perimeter=parallelogramPerimeter;whiteSpace=wrap;html=1;fixedSize=1;" vertex="1" parent="WIyWlLk6GJQsqaUBKTNV-1">
          <mxGeometry x="764.5" y="1200" width="120" height="60" as="geometry" />
        </mxCell>
        <mxCell id="cD0JJt_eKA0-qdBhpxKM-15" value="" style="edgeStyle=orthogonalEdgeStyle;rounded=0;orthogonalLoop=1;jettySize=auto;html=1;" edge="1" parent="WIyWlLk6GJQsqaUBKTNV-1" source="cD0JJt_eKA0-qdBhpxKM-12" target="cD0JJt_eKA0-qdBhpxKM-14">
          <mxGeometry relative="1" as="geometry" />
        </mxCell>
        <mxCell id="cD0JJt_eKA0-qdBhpxKM-21" value="Yes" style="edgeLabel;html=1;align=center;verticalAlign=middle;resizable=0;points=[];" vertex="1" connectable="0" parent="cD0JJt_eKA0-qdBhpxKM-15">
          <mxGeometry x="-0.2444" y="3" relative="1" as="geometry">
            <mxPoint as="offset" />
          </mxGeometry>
        </mxCell>
        <mxCell id="cD0JJt_eKA0-qdBhpxKM-17" value="" style="edgeStyle=orthogonalEdgeStyle;rounded=0;orthogonalLoop=1;jettySize=auto;html=1;" edge="1" parent="WIyWlLk6GJQsqaUBKTNV-1" source="cD0JJt_eKA0-qdBhpxKM-12" target="cD0JJt_eKA0-qdBhpxKM-16">
          <mxGeometry relative="1" as="geometry" />
        </mxCell>
        <mxCell id="cD0JJt_eKA0-qdBhpxKM-23" value="No" style="edgeLabel;html=1;align=center;verticalAlign=middle;resizable=0;points=[];" vertex="1" connectable="0" parent="cD0JJt_eKA0-qdBhpxKM-17">
          <mxGeometry x="0.1214" y="2" relative="1" as="geometry">
            <mxPoint x="1" as="offset" />
          </mxGeometry>
        </mxCell>
        <mxCell id="cD0JJt_eKA0-qdBhpxKM-12" value="Is cached response?" style="rhombus;whiteSpace=wrap;html=1;" vertex="1" parent="WIyWlLk6GJQsqaUBKTNV-1">
          <mxGeometry x="624.5" y="1350" width="80" height="80" as="geometry" />
        </mxCell>
        <mxCell id="cD0JJt_eKA0-qdBhpxKM-14" value="&#39;Hello, World! (from cache)" style="shape=parallelogram;perimeter=parallelogramPerimeter;whiteSpace=wrap;html=1;fixedSize=1;" vertex="1" parent="WIyWlLk6GJQsqaUBKTNV-1">
          <mxGeometry x="604.5" y="1520" width="120" height="60" as="geometry" />
        </mxCell>
        <mxCell id="cD0JJt_eKA0-qdBhpxKM-16" value="Hello, World! (first time)" style="shape=parallelogram;perimeter=parallelogramPerimeter;whiteSpace=wrap;html=1;fixedSize=1;" vertex="1" parent="WIyWlLk6GJQsqaUBKTNV-1">
          <mxGeometry x="764.5" y="1360" width="120" height="60" as="geometry" />
        </mxCell>
        <mxCell id="cD0JJt_eKA0-qdBhpxKM-35" value="" style="edgeStyle=orthogonalEdgeStyle;rounded=0;orthogonalLoop=1;jettySize=auto;html=1;" edge="1" parent="WIyWlLk6GJQsqaUBKTNV-1" source="cD0JJt_eKA0-qdBhpxKM-27" target="cD0JJt_eKA0-qdBhpxKM-34">
          <mxGeometry relative="1" as="geometry" />
        </mxCell>
        <mxCell id="cD0JJt_eKA0-qdBhpxKM-75" value="Yes" style="edgeLabel;html=1;align=center;verticalAlign=middle;resizable=0;points=[];" vertex="1" connectable="0" parent="cD0JJt_eKA0-qdBhpxKM-35">
          <mxGeometry x="-0.0596" y="2" relative="1" as="geometry">
            <mxPoint as="offset" />
          </mxGeometry>
        </mxCell>
        <mxCell id="cD0JJt_eKA0-qdBhpxKM-92" style="edgeStyle=orthogonalEdgeStyle;rounded=0;orthogonalLoop=1;jettySize=auto;html=1;" edge="1" parent="WIyWlLk6GJQsqaUBKTNV-1" source="cD0JJt_eKA0-qdBhpxKM-27" target="cD0JJt_eKA0-qdBhpxKM-91">
          <mxGeometry relative="1" as="geometry" />
        </mxCell>
        <mxCell id="cD0JJt_eKA0-qdBhpxKM-27" value="Is url pattern name&lt;div&gt;&#39;&lt;a href=&quot;https://github.com/Jasmin1117/Integrative-Programming-and-Technologies-Act/blob/a0c724d7721e72b1a77a9e88cee2ff3ab92f09ae/connectly_project/posts/urls.py#L24&quot;&gt;post-detail&lt;/a&gt;&#39;?&lt;/div&gt;" style="rhombus;whiteSpace=wrap;html=1;" vertex="1" parent="WIyWlLk6GJQsqaUBKTNV-1">
          <mxGeometry x="1060" y="717.5" width="190" height="195" as="geometry" />
        </mxCell>
        <mxCell id="cD0JJt_eKA0-qdBhpxKM-37" style="edgeStyle=orthogonalEdgeStyle;rounded=0;orthogonalLoop=1;jettySize=auto;html=1;" edge="1" parent="WIyWlLk6GJQsqaUBKTNV-1" source="cD0JJt_eKA0-qdBhpxKM-34" target="cD0JJt_eKA0-qdBhpxKM-36">
          <mxGeometry relative="1" as="geometry" />
        </mxCell>
        <mxCell id="cD0JJt_eKA0-qdBhpxKM-34" value="Server initiate&lt;div&gt;PostDetailView.asView()&lt;/div&gt;" style="whiteSpace=wrap;html=1;" vertex="1" parent="WIyWlLk6GJQsqaUBKTNV-1">
          <mxGeometry x="1095" y="1060" width="120" height="60" as="geometry" />
        </mxCell>
        <mxCell id="cD0JJt_eKA0-qdBhpxKM-40" value="" style="edgeStyle=orthogonalEdgeStyle;rounded=0;orthogonalLoop=1;jettySize=auto;html=1;" edge="1" parent="WIyWlLk6GJQsqaUBKTNV-1" source="cD0JJt_eKA0-qdBhpxKM-36" target="cD0JJt_eKA0-qdBhpxKM-39">
          <mxGeometry relative="1" as="geometry" />
        </mxCell>
        <mxCell id="cD0JJt_eKA0-qdBhpxKM-93" value="Yes" style="edgeLabel;html=1;align=center;verticalAlign=middle;resizable=0;points=[];" vertex="1" connectable="0" parent="cD0JJt_eKA0-qdBhpxKM-40">
          <mxGeometry x="-0.0958" relative="1" as="geometry">
            <mxPoint as="offset" />
          </mxGeometry>
        </mxCell>
        <mxCell id="cD0JJt_eKA0-qdBhpxKM-46" value="" style="edgeStyle=orthogonalEdgeStyle;rounded=0;orthogonalLoop=1;jettySize=auto;html=1;" edge="1" parent="WIyWlLk6GJQsqaUBKTNV-1" source="cD0JJt_eKA0-qdBhpxKM-36" target="cD0JJt_eKA0-qdBhpxKM-45">
          <mxGeometry relative="1" as="geometry" />
        </mxCell>
        <mxCell id="cD0JJt_eKA0-qdBhpxKM-96" value="No" style="edgeLabel;html=1;align=center;verticalAlign=middle;resizable=0;points=[];" vertex="1" connectable="0" parent="cD0JJt_eKA0-qdBhpxKM-46">
          <mxGeometry x="0.0038" y="-2" relative="1" as="geometry">
            <mxPoint x="-13" y="-12" as="offset" />
          </mxGeometry>
        </mxCell>
        <mxCell id="cD0JJt_eKA0-qdBhpxKM-36" value="Is &#39;GET&#39; an HTTP status code?" style="rhombus;whiteSpace=wrap;html=1;" vertex="1" parent="WIyWlLk6GJQsqaUBKTNV-1">
          <mxGeometry x="1115" y="1190" width="80" height="80" as="geometry" />
        </mxCell>
        <mxCell id="cD0JJt_eKA0-qdBhpxKM-42" value="" style="edgeStyle=orthogonalEdgeStyle;rounded=0;orthogonalLoop=1;jettySize=auto;html=1;" edge="1" parent="WIyWlLk6GJQsqaUBKTNV-1" source="cD0JJt_eKA0-qdBhpxKM-39" target="cD0JJt_eKA0-qdBhpxKM-41">
          <mxGeometry relative="1" as="geometry" />
        </mxCell>
        <mxCell id="cD0JJt_eKA0-qdBhpxKM-94" value="Yes" style="edgeLabel;html=1;align=center;verticalAlign=middle;resizable=0;points=[];" vertex="1" connectable="0" parent="cD0JJt_eKA0-qdBhpxKM-42">
          <mxGeometry x="-0.1222" y="2" relative="1" as="geometry">
            <mxPoint as="offset" />
          </mxGeometry>
        </mxCell>
        <mxCell id="cD0JJt_eKA0-qdBhpxKM-44" value="" style="edgeStyle=orthogonalEdgeStyle;rounded=0;orthogonalLoop=1;jettySize=auto;html=1;" edge="1" parent="WIyWlLk6GJQsqaUBKTNV-1" source="cD0JJt_eKA0-qdBhpxKM-39" target="cD0JJt_eKA0-qdBhpxKM-43">
          <mxGeometry relative="1" as="geometry" />
        </mxCell>
        <mxCell id="cD0JJt_eKA0-qdBhpxKM-95" value="No" style="edgeLabel;html=1;align=center;verticalAlign=middle;resizable=0;points=[];" vertex="1" connectable="0" parent="cD0JJt_eKA0-qdBhpxKM-44">
          <mxGeometry x="-0.081" relative="1" as="geometry">
            <mxPoint as="offset" />
          </mxGeometry>
        </mxCell>
        <mxCell id="cD0JJt_eKA0-qdBhpxKM-39" value="does post exist?" style="rhombus;whiteSpace=wrap;html=1;" vertex="1" parent="WIyWlLk6GJQsqaUBKTNV-1">
          <mxGeometry x="1115" y="1350" width="80" height="80" as="geometry" />
        </mxCell>
        <mxCell id="cD0JJt_eKA0-qdBhpxKM-150" style="edgeStyle=orthogonalEdgeStyle;rounded=0;orthogonalLoop=1;jettySize=auto;html=1;jumpStyle=arc;" edge="1" parent="WIyWlLk6GJQsqaUBKTNV-1" source="cD0JJt_eKA0-qdBhpxKM-41" target="cD0JJt_eKA0-qdBhpxKM-139">
          <mxGeometry relative="1" as="geometry">
            <Array as="points">
              <mxPoint x="1155" y="2030" />
              <mxPoint x="2550" y="2030" />
            </Array>
          </mxGeometry>
        </mxCell>
        <mxCell id="cD0JJt_eKA0-qdBhpxKM-41" value="Display post data" style="shape=parallelogram;perimeter=parallelogramPerimeter;whiteSpace=wrap;html=1;fixedSize=1;" vertex="1" parent="WIyWlLk6GJQsqaUBKTNV-1">
          <mxGeometry x="1095" y="1520" width="120" height="60" as="geometry" />
        </mxCell>
        <mxCell id="cD0JJt_eKA0-qdBhpxKM-149" style="edgeStyle=orthogonalEdgeStyle;rounded=0;orthogonalLoop=1;jettySize=auto;html=1;jumpStyle=arc;" edge="1" parent="WIyWlLk6GJQsqaUBKTNV-1" source="cD0JJt_eKA0-qdBhpxKM-43" target="cD0JJt_eKA0-qdBhpxKM-139">
          <mxGeometry relative="1" as="geometry">
            <Array as="points">
              <mxPoint x="1315" y="2010" />
              <mxPoint x="2540" y="2010" />
            </Array>
          </mxGeometry>
        </mxCell>
        <mxCell id="cD0JJt_eKA0-qdBhpxKM-43" value="Display post&amp;nbsp;&lt;div&gt;not found&lt;/div&gt;" style="shape=parallelogram;perimeter=parallelogramPerimeter;whiteSpace=wrap;html=1;fixedSize=1;" vertex="1" parent="WIyWlLk6GJQsqaUBKTNV-1">
          <mxGeometry x="1255" y="1360" width="120" height="60" as="geometry" />
        </mxCell>
        <mxCell id="cD0JJt_eKA0-qdBhpxKM-57" style="edgeStyle=orthogonalEdgeStyle;rounded=0;orthogonalLoop=1;jettySize=auto;html=1;" edge="1" parent="WIyWlLk6GJQsqaUBKTNV-1" source="cD0JJt_eKA0-qdBhpxKM-45" target="cD0JJt_eKA0-qdBhpxKM-51">
          <mxGeometry relative="1" as="geometry" />
        </mxCell>
        <mxCell id="cD0JJt_eKA0-qdBhpxKM-74" value="Yes" style="edgeLabel;html=1;align=center;verticalAlign=middle;resizable=0;points=[];" vertex="1" connectable="0" parent="cD0JJt_eKA0-qdBhpxKM-57">
          <mxGeometry x="-0.399" y="-2" relative="1" as="geometry">
            <mxPoint as="offset" />
          </mxGeometry>
        </mxCell>
        <mxCell id="cD0JJt_eKA0-qdBhpxKM-72" style="edgeStyle=orthogonalEdgeStyle;rounded=0;orthogonalLoop=1;jettySize=auto;html=1;" edge="1" parent="WIyWlLk6GJQsqaUBKTNV-1" source="cD0JJt_eKA0-qdBhpxKM-45" target="cD0JJt_eKA0-qdBhpxKM-70">
          <mxGeometry relative="1" as="geometry" />
        </mxCell>
        <mxCell id="cD0JJt_eKA0-qdBhpxKM-73" value="No" style="edgeLabel;html=1;align=center;verticalAlign=middle;resizable=0;points=[];" vertex="1" connectable="0" parent="cD0JJt_eKA0-qdBhpxKM-72">
          <mxGeometry x="-0.7688" y="-1" relative="1" as="geometry">
            <mxPoint x="83" y="-11" as="offset" />
          </mxGeometry>
        </mxCell>
        <mxCell id="cD0JJt_eKA0-qdBhpxKM-45" value="Is PUT&#39; an HTTP status code?" style="rhombus;whiteSpace=wrap;html=1;" vertex="1" parent="WIyWlLk6GJQsqaUBKTNV-1">
          <mxGeometry x="1460" y="1190" width="80" height="80" as="geometry" />
        </mxCell>
        <mxCell id="cD0JJt_eKA0-qdBhpxKM-63" value="" style="edgeStyle=orthogonalEdgeStyle;rounded=0;orthogonalLoop=1;jettySize=auto;html=1;" edge="1" parent="WIyWlLk6GJQsqaUBKTNV-1" source="cD0JJt_eKA0-qdBhpxKM-47" target="cD0JJt_eKA0-qdBhpxKM-62">
          <mxGeometry relative="1" as="geometry" />
        </mxCell>
        <mxCell id="cD0JJt_eKA0-qdBhpxKM-66" value="No" style="edgeLabel;html=1;align=center;verticalAlign=middle;resizable=0;points=[];" vertex="1" connectable="0" parent="cD0JJt_eKA0-qdBhpxKM-63">
          <mxGeometry x="-0.2472" y="-1" relative="1" as="geometry">
            <mxPoint as="offset" />
          </mxGeometry>
        </mxCell>
        <mxCell id="cD0JJt_eKA0-qdBhpxKM-68" value="" style="edgeStyle=orthogonalEdgeStyle;rounded=0;orthogonalLoop=1;jettySize=auto;html=1;" edge="1" parent="WIyWlLk6GJQsqaUBKTNV-1" source="cD0JJt_eKA0-qdBhpxKM-47" target="cD0JJt_eKA0-qdBhpxKM-67">
          <mxGeometry relative="1" as="geometry" />
        </mxCell>
        <mxCell id="cD0JJt_eKA0-qdBhpxKM-69" value="Yes" style="edgeLabel;html=1;align=center;verticalAlign=middle;resizable=0;points=[];" vertex="1" connectable="0" parent="cD0JJt_eKA0-qdBhpxKM-68">
          <mxGeometry x="-0.2444" y="-2" relative="1" as="geometry">
            <mxPoint as="offset" />
          </mxGeometry>
        </mxCell>
        <mxCell id="cD0JJt_eKA0-qdBhpxKM-47" value="Are you the post author?" style="rhombus;whiteSpace=wrap;html=1;" vertex="1" parent="WIyWlLk6GJQsqaUBKTNV-1">
          <mxGeometry x="1460" y="1510" width="80" height="80" as="geometry" />
        </mxCell>
        <mxCell id="cD0JJt_eKA0-qdBhpxKM-145" style="edgeStyle=orthogonalEdgeStyle;rounded=0;orthogonalLoop=1;jettySize=auto;html=1;jumpStyle=arc;" edge="1" parent="WIyWlLk6GJQsqaUBKTNV-1" source="cD0JJt_eKA0-qdBhpxKM-49" target="cD0JJt_eKA0-qdBhpxKM-139">
          <mxGeometry relative="1" as="geometry">
            <Array as="points">
              <mxPoint x="1760" y="1400" />
              <mxPoint x="1760" y="1960" />
            </Array>
          </mxGeometry>
        </mxCell>
        <mxCell id="cD0JJt_eKA0-qdBhpxKM-49" value="&lt;div&gt;Post not found.&lt;/div&gt;" style="shape=parallelogram;perimeter=parallelogramPerimeter;whiteSpace=wrap;html=1;fixedSize=1;" vertex="1" parent="WIyWlLk6GJQsqaUBKTNV-1">
          <mxGeometry x="1610" y="1370" width="120" height="60" as="geometry" />
        </mxCell>
        <mxCell id="cD0JJt_eKA0-qdBhpxKM-58" style="edgeStyle=orthogonalEdgeStyle;rounded=0;orthogonalLoop=1;jettySize=auto;html=1;" edge="1" parent="WIyWlLk6GJQsqaUBKTNV-1" source="cD0JJt_eKA0-qdBhpxKM-51" target="cD0JJt_eKA0-qdBhpxKM-49">
          <mxGeometry relative="1" as="geometry" />
        </mxCell>
        <mxCell id="cD0JJt_eKA0-qdBhpxKM-64" value="No" style="edgeLabel;html=1;align=center;verticalAlign=middle;resizable=0;points=[];" vertex="1" connectable="0" parent="cD0JJt_eKA0-qdBhpxKM-58">
          <mxGeometry x="-0.2326" y="2" relative="1" as="geometry">
            <mxPoint as="offset" />
          </mxGeometry>
        </mxCell>
        <mxCell id="cD0JJt_eKA0-qdBhpxKM-59" style="edgeStyle=orthogonalEdgeStyle;rounded=0;orthogonalLoop=1;jettySize=auto;html=1;" edge="1" parent="WIyWlLk6GJQsqaUBKTNV-1" source="cD0JJt_eKA0-qdBhpxKM-51" target="cD0JJt_eKA0-qdBhpxKM-47">
          <mxGeometry relative="1" as="geometry" />
        </mxCell>
        <mxCell id="cD0JJt_eKA0-qdBhpxKM-65" value="Yes" style="edgeLabel;html=1;align=center;verticalAlign=middle;resizable=0;points=[];" vertex="1" connectable="0" parent="cD0JJt_eKA0-qdBhpxKM-59">
          <mxGeometry x="-0.046" y="1" relative="1" as="geometry">
            <mxPoint as="offset" />
          </mxGeometry>
        </mxCell>
        <mxCell id="cD0JJt_eKA0-qdBhpxKM-51" value="Does post exist?" style="rhombus;whiteSpace=wrap;html=1;" vertex="1" parent="WIyWlLk6GJQsqaUBKTNV-1">
          <mxGeometry x="1460" y="1360" width="80" height="80" as="geometry" />
        </mxCell>
        <mxCell id="cD0JJt_eKA0-qdBhpxKM-146" style="edgeStyle=orthogonalEdgeStyle;rounded=0;orthogonalLoop=1;jettySize=auto;html=1;jumpStyle=arc;" edge="1" parent="WIyWlLk6GJQsqaUBKTNV-1" source="cD0JJt_eKA0-qdBhpxKM-62" target="cD0JJt_eKA0-qdBhpxKM-139">
          <mxGeometry relative="1" as="geometry">
            <Array as="points">
              <mxPoint x="1660" y="1970" />
            </Array>
          </mxGeometry>
        </mxCell>
        <mxCell id="cD0JJt_eKA0-qdBhpxKM-62" value="You do not have permission to perform this action." style="shape=parallelogram;perimeter=parallelogramPerimeter;whiteSpace=wrap;html=1;fixedSize=1;" vertex="1" parent="WIyWlLk6GJQsqaUBKTNV-1">
          <mxGeometry x="1600" y="1520" width="120" height="60" as="geometry" />
        </mxCell>
        <mxCell id="cD0JJt_eKA0-qdBhpxKM-67" value="Post modified successfully" style="shape=parallelogram;perimeter=parallelogramPerimeter;whiteSpace=wrap;html=1;fixedSize=1;" vertex="1" parent="WIyWlLk6GJQsqaUBKTNV-1">
          <mxGeometry x="1440" y="1680" width="120" height="60" as="geometry" />
        </mxCell>
        <mxCell id="cD0JJt_eKA0-qdBhpxKM-70" value="Is &#39;DELETE&#39; an HTTP status code?" style="rhombus;whiteSpace=wrap;html=1;" vertex="1" parent="WIyWlLk6GJQsqaUBKTNV-1">
          <mxGeometry x="1810" y="1190" width="80" height="80" as="geometry" />
        </mxCell>
        <mxCell id="cD0JJt_eKA0-qdBhpxKM-76" value="" style="edgeStyle=orthogonalEdgeStyle;rounded=0;orthogonalLoop=1;jettySize=auto;html=1;" edge="1" source="cD0JJt_eKA0-qdBhpxKM-80" target="cD0JJt_eKA0-qdBhpxKM-87" parent="WIyWlLk6GJQsqaUBKTNV-1">
          <mxGeometry relative="1" as="geometry" />
        </mxCell>
        <mxCell id="cD0JJt_eKA0-qdBhpxKM-77" value="No" style="edgeLabel;html=1;align=center;verticalAlign=middle;resizable=0;points=[];" vertex="1" connectable="0" parent="cD0JJt_eKA0-qdBhpxKM-76">
          <mxGeometry x="-0.2472" y="-1" relative="1" as="geometry">
            <mxPoint as="offset" />
          </mxGeometry>
        </mxCell>
        <mxCell id="cD0JJt_eKA0-qdBhpxKM-78" value="" style="edgeStyle=orthogonalEdgeStyle;rounded=0;orthogonalLoop=1;jettySize=auto;html=1;" edge="1" source="cD0JJt_eKA0-qdBhpxKM-80" target="cD0JJt_eKA0-qdBhpxKM-88" parent="WIyWlLk6GJQsqaUBKTNV-1">
          <mxGeometry relative="1" as="geometry" />
        </mxCell>
        <mxCell id="cD0JJt_eKA0-qdBhpxKM-79" value="Yes" style="edgeLabel;html=1;align=center;verticalAlign=middle;resizable=0;points=[];" vertex="1" connectable="0" parent="cD0JJt_eKA0-qdBhpxKM-78">
          <mxGeometry x="-0.2444" y="-2" relative="1" as="geometry">
            <mxPoint as="offset" />
          </mxGeometry>
        </mxCell>
        <mxCell id="cD0JJt_eKA0-qdBhpxKM-80" value="Are you the post author?" style="rhombus;whiteSpace=wrap;html=1;" vertex="1" parent="WIyWlLk6GJQsqaUBKTNV-1">
          <mxGeometry x="1810" y="1510" width="80" height="80" as="geometry" />
        </mxCell>
        <mxCell id="cD0JJt_eKA0-qdBhpxKM-81" value="&lt;div&gt;Post not found.&lt;/div&gt;" style="shape=parallelogram;perimeter=parallelogramPerimeter;whiteSpace=wrap;html=1;fixedSize=1;" vertex="1" parent="WIyWlLk6GJQsqaUBKTNV-1">
          <mxGeometry x="1960" y="1370" width="120" height="60" as="geometry" />
        </mxCell>
        <mxCell id="cD0JJt_eKA0-qdBhpxKM-82" style="edgeStyle=orthogonalEdgeStyle;rounded=0;orthogonalLoop=1;jettySize=auto;html=1;" edge="1" source="cD0JJt_eKA0-qdBhpxKM-86" target="cD0JJt_eKA0-qdBhpxKM-81" parent="WIyWlLk6GJQsqaUBKTNV-1">
          <mxGeometry relative="1" as="geometry" />
        </mxCell>
        <mxCell id="cD0JJt_eKA0-qdBhpxKM-83" value="No" style="edgeLabel;html=1;align=center;verticalAlign=middle;resizable=0;points=[];" vertex="1" connectable="0" parent="cD0JJt_eKA0-qdBhpxKM-82">
          <mxGeometry x="-0.2326" y="2" relative="1" as="geometry">
            <mxPoint as="offset" />
          </mxGeometry>
        </mxCell>
        <mxCell id="cD0JJt_eKA0-qdBhpxKM-84" style="edgeStyle=orthogonalEdgeStyle;rounded=0;orthogonalLoop=1;jettySize=auto;html=1;" edge="1" source="cD0JJt_eKA0-qdBhpxKM-86" target="cD0JJt_eKA0-qdBhpxKM-80" parent="WIyWlLk6GJQsqaUBKTNV-1">
          <mxGeometry relative="1" as="geometry" />
        </mxCell>
        <mxCell id="cD0JJt_eKA0-qdBhpxKM-85" value="Yes" style="edgeLabel;html=1;align=center;verticalAlign=middle;resizable=0;points=[];" vertex="1" connectable="0" parent="cD0JJt_eKA0-qdBhpxKM-84">
          <mxGeometry x="-0.046" y="1" relative="1" as="geometry">
            <mxPoint as="offset" />
          </mxGeometry>
        </mxCell>
        <mxCell id="cD0JJt_eKA0-qdBhpxKM-86" value="Does post exist?" style="rhombus;whiteSpace=wrap;html=1;" vertex="1" parent="WIyWlLk6GJQsqaUBKTNV-1">
          <mxGeometry x="1810" y="1360" width="80" height="80" as="geometry" />
        </mxCell>
        <mxCell id="cD0JJt_eKA0-qdBhpxKM-87" value="You do not have permission to perform this action." style="shape=parallelogram;perimeter=parallelogramPerimeter;whiteSpace=wrap;html=1;fixedSize=1;" vertex="1" parent="WIyWlLk6GJQsqaUBKTNV-1">
          <mxGeometry x="1950" y="1520" width="120" height="60" as="geometry" />
        </mxCell>
        <mxCell id="cD0JJt_eKA0-qdBhpxKM-88" value="Post deleted successfully." style="shape=parallelogram;perimeter=parallelogramPerimeter;whiteSpace=wrap;html=1;fixedSize=1;" vertex="1" parent="WIyWlLk6GJQsqaUBKTNV-1">
          <mxGeometry x="1790" y="1680" width="120" height="60" as="geometry" />
        </mxCell>
        <mxCell id="cD0JJt_eKA0-qdBhpxKM-89" style="edgeStyle=orthogonalEdgeStyle;rounded=0;orthogonalLoop=1;jettySize=auto;html=1;" edge="1" target="cD0JJt_eKA0-qdBhpxKM-86" parent="WIyWlLk6GJQsqaUBKTNV-1">
          <mxGeometry relative="1" as="geometry">
            <mxPoint x="1850" y="1270" as="sourcePoint" />
          </mxGeometry>
        </mxCell>
        <mxCell id="cD0JJt_eKA0-qdBhpxKM-90" value="Yes" style="edgeLabel;html=1;align=center;verticalAlign=middle;resizable=0;points=[];" vertex="1" connectable="0" parent="cD0JJt_eKA0-qdBhpxKM-89">
          <mxGeometry x="-0.399" y="-2" relative="1" as="geometry">
            <mxPoint as="offset" />
          </mxGeometry>
        </mxCell>
        <mxCell id="cD0JJt_eKA0-qdBhpxKM-100" value="" style="edgeStyle=orthogonalEdgeStyle;rounded=0;orthogonalLoop=1;jettySize=auto;html=1;" edge="1" parent="WIyWlLk6GJQsqaUBKTNV-1" source="cD0JJt_eKA0-qdBhpxKM-91" target="cD0JJt_eKA0-qdBhpxKM-99">
          <mxGeometry relative="1" as="geometry" />
        </mxCell>
        <mxCell id="cD0JJt_eKA0-qdBhpxKM-137" value="" style="edgeStyle=orthogonalEdgeStyle;rounded=0;orthogonalLoop=1;jettySize=auto;html=1;" edge="1" parent="WIyWlLk6GJQsqaUBKTNV-1" source="cD0JJt_eKA0-qdBhpxKM-91" target="cD0JJt_eKA0-qdBhpxKM-136">
          <mxGeometry relative="1" as="geometry" />
        </mxCell>
        <mxCell id="cD0JJt_eKA0-qdBhpxKM-91" value="Is url pattern name&lt;div&gt;&#39;&lt;a href=&quot;https://github.com/Jasmin1117/Integrative-Programming-and-Technologies-Act/blob/a0c724d7721e72b1a77a9e88cee2ff3ab92f09ae/connectly_project/posts/urls.py#L33&quot;&gt;news-feed&lt;/a&gt;&#39;?&lt;/div&gt;" style="rhombus;whiteSpace=wrap;html=1;" vertex="1" parent="WIyWlLk6GJQsqaUBKTNV-1">
          <mxGeometry x="2160" y="717.5" width="190" height="195" as="geometry" />
        </mxCell>
        <mxCell id="cD0JJt_eKA0-qdBhpxKM-99" value="Server initate&lt;div&gt;NewsFeedView&lt;/div&gt;" style="whiteSpace=wrap;html=1;" vertex="1" parent="WIyWlLk6GJQsqaUBKTNV-1">
          <mxGeometry x="2195" y="1060" width="120" height="60" as="geometry" />
        </mxCell>
        <mxCell id="cD0JJt_eKA0-qdBhpxKM-107" style="edgeStyle=orthogonalEdgeStyle;rounded=0;orthogonalLoop=1;jettySize=auto;html=1;" edge="1" parent="WIyWlLk6GJQsqaUBKTNV-1" target="cD0JJt_eKA0-qdBhpxKM-112">
          <mxGeometry relative="1" as="geometry">
            <mxPoint x="2250" y="1120" as="sourcePoint" />
          </mxGeometry>
        </mxCell>
        <mxCell id="cD0JJt_eKA0-qdBhpxKM-114" value="" style="edgeStyle=orthogonalEdgeStyle;rounded=0;orthogonalLoop=1;jettySize=auto;html=1;" edge="1" parent="WIyWlLk6GJQsqaUBKTNV-1" source="cD0JJt_eKA0-qdBhpxKM-112" target="cD0JJt_eKA0-qdBhpxKM-113">
          <mxGeometry relative="1" as="geometry" />
        </mxCell>
        <mxCell id="cD0JJt_eKA0-qdBhpxKM-122" value="Yes" style="edgeLabel;html=1;align=center;verticalAlign=middle;resizable=0;points=[];" vertex="1" connectable="0" parent="cD0JJt_eKA0-qdBhpxKM-114">
          <mxGeometry x="-0.2133" y="3" relative="1" as="geometry">
            <mxPoint as="offset" />
          </mxGeometry>
        </mxCell>
        <mxCell id="cD0JJt_eKA0-qdBhpxKM-132" value="" style="edgeStyle=orthogonalEdgeStyle;rounded=0;orthogonalLoop=1;jettySize=auto;html=1;" edge="1" parent="WIyWlLk6GJQsqaUBKTNV-1" source="cD0JJt_eKA0-qdBhpxKM-112" target="cD0JJt_eKA0-qdBhpxKM-131">
          <mxGeometry relative="1" as="geometry" />
        </mxCell>
        <mxCell id="cD0JJt_eKA0-qdBhpxKM-133" value="No" style="edgeLabel;html=1;align=center;verticalAlign=middle;resizable=0;points=[];" vertex="1" connectable="0" parent="cD0JJt_eKA0-qdBhpxKM-132">
          <mxGeometry x="-0.2762" y="2" relative="1" as="geometry">
            <mxPoint y="-8" as="offset" />
          </mxGeometry>
        </mxCell>
        <mxCell id="cD0JJt_eKA0-qdBhpxKM-112" value="Is &#39;GET&#39; an HTTP status code?" style="rhombus;whiteSpace=wrap;html=1;" vertex="1" parent="WIyWlLk6GJQsqaUBKTNV-1">
          <mxGeometry x="2210" y="1190" width="80" height="80" as="geometry" />
        </mxCell>
        <mxCell id="cD0JJt_eKA0-qdBhpxKM-119" value="" style="edgeStyle=orthogonalEdgeStyle;rounded=0;orthogonalLoop=1;jettySize=auto;html=1;" edge="1" parent="WIyWlLk6GJQsqaUBKTNV-1" source="cD0JJt_eKA0-qdBhpxKM-113" target="cD0JJt_eKA0-qdBhpxKM-118">
          <mxGeometry relative="1" as="geometry" />
        </mxCell>
        <mxCell id="cD0JJt_eKA0-qdBhpxKM-123" value="Yes" style="edgeLabel;html=1;align=center;verticalAlign=middle;resizable=0;points=[];" vertex="1" connectable="0" parent="cD0JJt_eKA0-qdBhpxKM-119">
          <mxGeometry x="-0.3886" y="-2" relative="1" as="geometry">
            <mxPoint as="offset" />
          </mxGeometry>
        </mxCell>
        <mxCell id="cD0JJt_eKA0-qdBhpxKM-113" value="Initiate get_queryset" style="whiteSpace=wrap;html=1;" vertex="1" parent="WIyWlLk6GJQsqaUBKTNV-1">
          <mxGeometry x="2190" y="1360" width="120" height="60" as="geometry" />
        </mxCell>
        <mxCell id="cD0JJt_eKA0-qdBhpxKM-121" value="" style="edgeStyle=orthogonalEdgeStyle;rounded=0;orthogonalLoop=1;jettySize=auto;html=1;" edge="1" parent="WIyWlLk6GJQsqaUBKTNV-1" source="cD0JJt_eKA0-qdBhpxKM-118" target="cD0JJt_eKA0-qdBhpxKM-120">
          <mxGeometry relative="1" as="geometry" />
        </mxCell>
        <mxCell id="cD0JJt_eKA0-qdBhpxKM-124" value="Yes" style="edgeLabel;html=1;align=center;verticalAlign=middle;resizable=0;points=[];" vertex="1" connectable="0" parent="cD0JJt_eKA0-qdBhpxKM-121">
          <mxGeometry x="-0.1689" y="-2" relative="1" as="geometry">
            <mxPoint as="offset" />
          </mxGeometry>
        </mxCell>
        <mxCell id="cD0JJt_eKA0-qdBhpxKM-126" value="" style="edgeStyle=orthogonalEdgeStyle;rounded=0;orthogonalLoop=1;jettySize=auto;html=1;" edge="1" parent="WIyWlLk6GJQsqaUBKTNV-1" source="cD0JJt_eKA0-qdBhpxKM-118" target="cD0JJt_eKA0-qdBhpxKM-125">
          <mxGeometry relative="1" as="geometry" />
        </mxCell>
        <mxCell id="cD0JJt_eKA0-qdBhpxKM-130" value="No" style="edgeLabel;html=1;align=center;verticalAlign=middle;resizable=0;points=[];" vertex="1" connectable="0" parent="cD0JJt_eKA0-qdBhpxKM-126">
          <mxGeometry x="-0.2806" y="-2" relative="1" as="geometry">
            <mxPoint as="offset" />
          </mxGeometry>
        </mxCell>
        <mxCell id="cD0JJt_eKA0-qdBhpxKM-118" value="Does cached response &lt;b&gt;not &lt;/b&gt;empty?" style="rhombus;whiteSpace=wrap;html=1;" vertex="1" parent="WIyWlLk6GJQsqaUBKTNV-1">
          <mxGeometry x="2195" y="1490" width="110" height="80" as="geometry" />
        </mxCell>
        <mxCell id="cD0JJt_eKA0-qdBhpxKM-142" style="edgeStyle=orthogonalEdgeStyle;rounded=0;orthogonalLoop=1;jettySize=auto;html=1;entryX=0.145;entryY=0.145;entryDx=0;entryDy=0;entryPerimeter=0;jumpStyle=arc;" edge="1" parent="WIyWlLk6GJQsqaUBKTNV-1" source="cD0JJt_eKA0-qdBhpxKM-120" target="cD0JJt_eKA0-qdBhpxKM-139">
          <mxGeometry relative="1" as="geometry">
            <Array as="points">
              <mxPoint x="2250" y="1900" />
              <mxPoint x="2490" y="1900" />
            </Array>
          </mxGeometry>
        </mxCell>
        <mxCell id="cD0JJt_eKA0-qdBhpxKM-120" value="Display response from cached data" style="shape=parallelogram;perimeter=parallelogramPerimeter;whiteSpace=wrap;html=1;fixedSize=1;" vertex="1" parent="WIyWlLk6GJQsqaUBKTNV-1">
          <mxGeometry x="2190" y="1660" width="120" height="60" as="geometry" />
        </mxCell>
        <mxCell id="cD0JJt_eKA0-qdBhpxKM-128" value="" style="edgeStyle=orthogonalEdgeStyle;rounded=0;orthogonalLoop=1;jettySize=auto;html=1;" edge="1" parent="WIyWlLk6GJQsqaUBKTNV-1" source="cD0JJt_eKA0-qdBhpxKM-125">
          <mxGeometry relative="1" as="geometry">
            <mxPoint x="2410" y="1660" as="targetPoint" />
          </mxGeometry>
        </mxCell>
        <mxCell id="cD0JJt_eKA0-qdBhpxKM-125" value="Set the cache with timeout 60 seconds" style="rhombus;whiteSpace=wrap;html=1;" vertex="1" parent="WIyWlLk6GJQsqaUBKTNV-1">
          <mxGeometry x="2370" y="1490" width="80" height="80" as="geometry" />
        </mxCell>
        <mxCell id="cD0JJt_eKA0-qdBhpxKM-141" style="edgeStyle=orthogonalEdgeStyle;rounded=0;orthogonalLoop=1;jettySize=auto;html=1;jumpStyle=arc;" edge="1" parent="WIyWlLk6GJQsqaUBKTNV-1" source="cD0JJt_eKA0-qdBhpxKM-129" target="cD0JJt_eKA0-qdBhpxKM-139">
          <mxGeometry relative="1" as="geometry">
            <Array as="points">
              <mxPoint x="2410" y="1890" />
              <mxPoint x="2500" y="1890" />
            </Array>
          </mxGeometry>
        </mxCell>
        <mxCell id="cD0JJt_eKA0-qdBhpxKM-129" value="Display response from serialized data" style="shape=parallelogram;perimeter=parallelogramPerimeter;whiteSpace=wrap;html=1;fixedSize=1;" vertex="1" parent="WIyWlLk6GJQsqaUBKTNV-1">
          <mxGeometry x="2350" y="1660" width="120" height="60" as="geometry" />
        </mxCell>
        <mxCell id="cD0JJt_eKA0-qdBhpxKM-131" value="Other method not&amp;nbsp;&lt;div&gt;allowed&lt;/div&gt;" style="shape=parallelogram;perimeter=parallelogramPerimeter;whiteSpace=wrap;html=1;fixedSize=1;" vertex="1" parent="WIyWlLk6GJQsqaUBKTNV-1">
          <mxGeometry x="2350" y="1200" width="120" height="60" as="geometry" />
        </mxCell>
        <mxCell id="cD0JJt_eKA0-qdBhpxKM-140" style="edgeStyle=orthogonalEdgeStyle;rounded=0;orthogonalLoop=1;jettySize=auto;html=1;jumpStyle=arc;" edge="1" parent="WIyWlLk6GJQsqaUBKTNV-1" source="cD0JJt_eKA0-qdBhpxKM-136" target="cD0JJt_eKA0-qdBhpxKM-139">
          <mxGeometry relative="1" as="geometry" />
        </mxCell>
        <mxCell id="cD0JJt_eKA0-qdBhpxKM-156" style="edgeStyle=orthogonalEdgeStyle;rounded=0;orthogonalLoop=1;jettySize=auto;html=1;dashed=1;endArrow=none;startFill=0;" edge="1" parent="WIyWlLk6GJQsqaUBKTNV-1" source="cD0JJt_eKA0-qdBhpxKM-136" target="cD0JJt_eKA0-qdBhpxKM-154">
          <mxGeometry relative="1" as="geometry" />
        </mxCell>
        <mxCell id="cD0JJt_eKA0-qdBhpxKM-136" value="Page not found" style="shape=parallelogram;perimeter=parallelogramPerimeter;whiteSpace=wrap;html=1;fixedSize=1;" vertex="1" parent="WIyWlLk6GJQsqaUBKTNV-1">
          <mxGeometry x="2465" y="785" width="120" height="60" as="geometry" />
        </mxCell>
        <mxCell id="cD0JJt_eKA0-qdBhpxKM-139" value="End" style="strokeWidth=2;html=1;shape=mxgraph.flowchart.start_1;whiteSpace=wrap;" vertex="1" parent="WIyWlLk6GJQsqaUBKTNV-1">
          <mxGeometry x="2475" y="1910" width="100" height="60" as="geometry" />
        </mxCell>
        <mxCell id="cD0JJt_eKA0-qdBhpxKM-144" style="edgeStyle=orthogonalEdgeStyle;rounded=0;orthogonalLoop=1;jettySize=auto;html=1;entryX=0.5;entryY=1;entryDx=0;entryDy=0;entryPerimeter=0;jumpStyle=arc;" edge="1" parent="WIyWlLk6GJQsqaUBKTNV-1" source="cD0JJt_eKA0-qdBhpxKM-67" target="cD0JJt_eKA0-qdBhpxKM-139">
          <mxGeometry relative="1" as="geometry">
            <Array as="points">
              <mxPoint x="1500" y="1990" />
              <mxPoint x="2525" y="1990" />
            </Array>
          </mxGeometry>
        </mxCell>
        <mxCell id="cD0JJt_eKA0-qdBhpxKM-147" style="edgeStyle=orthogonalEdgeStyle;rounded=0;orthogonalLoop=1;jettySize=auto;html=1;entryX=0.081;entryY=0.282;entryDx=0;entryDy=0;entryPerimeter=0;jumpStyle=arc;" edge="1" parent="WIyWlLk6GJQsqaUBKTNV-1" source="cD0JJt_eKA0-qdBhpxKM-81" target="cD0JJt_eKA0-qdBhpxKM-139">
          <mxGeometry relative="1" as="geometry">
            <Array as="points">
              <mxPoint x="2110" y="1400" />
              <mxPoint x="2110" y="1910" />
              <mxPoint x="2483" y="1910" />
            </Array>
          </mxGeometry>
        </mxCell>
        <mxCell id="cD0JJt_eKA0-qdBhpxKM-148" style="edgeStyle=orthogonalEdgeStyle;rounded=0;orthogonalLoop=1;jettySize=auto;html=1;jumpStyle=arc;" edge="1" parent="WIyWlLk6GJQsqaUBKTNV-1" source="cD0JJt_eKA0-qdBhpxKM-87" target="cD0JJt_eKA0-qdBhpxKM-139">
          <mxGeometry relative="1" as="geometry">
            <Array as="points">
              <mxPoint x="2010" y="1930" />
            </Array>
          </mxGeometry>
        </mxCell>
        <mxCell id="cD0JJt_eKA0-qdBhpxKM-151" style="edgeStyle=orthogonalEdgeStyle;rounded=0;orthogonalLoop=1;jettySize=auto;html=1;entryX=0.855;entryY=0.855;entryDx=0;entryDy=0;entryPerimeter=0;jumpStyle=arc;" edge="1" parent="WIyWlLk6GJQsqaUBKTNV-1" source="cD0JJt_eKA0-qdBhpxKM-14" target="cD0JJt_eKA0-qdBhpxKM-139">
          <mxGeometry relative="1" as="geometry">
            <Array as="points">
              <mxPoint x="664" y="2060" />
              <mxPoint x="2560" y="2060" />
            </Array>
          </mxGeometry>
        </mxCell>
        <mxCell id="cD0JJt_eKA0-qdBhpxKM-152" style="edgeStyle=orthogonalEdgeStyle;rounded=0;orthogonalLoop=1;jettySize=auto;html=1;entryX=1;entryY=0.5;entryDx=0;entryDy=0;entryPerimeter=0;jumpStyle=arc;" edge="1" parent="WIyWlLk6GJQsqaUBKTNV-1" source="cD0JJt_eKA0-qdBhpxKM-16" target="cD0JJt_eKA0-qdBhpxKM-139">
          <mxGeometry relative="1" as="geometry">
            <Array as="points">
              <mxPoint x="824" y="2040" />
              <mxPoint x="2595" y="2040" />
              <mxPoint x="2595" y="1940" />
            </Array>
          </mxGeometry>
        </mxCell>
        <mxCell id="cD0JJt_eKA0-qdBhpxKM-153" style="edgeStyle=orthogonalEdgeStyle;rounded=0;orthogonalLoop=1;jettySize=auto;html=1;entryX=0;entryY=0.5;entryDx=0;entryDy=0;entryPerimeter=0;jumpStyle=arc;" edge="1" parent="WIyWlLk6GJQsqaUBKTNV-1" source="cD0JJt_eKA0-qdBhpxKM-9" target="cD0JJt_eKA0-qdBhpxKM-139">
          <mxGeometry relative="1" as="geometry">
            <Array as="points">
              <mxPoint x="980" y="1230" />
              <mxPoint x="980" y="1940" />
            </Array>
          </mxGeometry>
        </mxCell>
        <mxCell id="cD0JJt_eKA0-qdBhpxKM-154" value="&lt;font style=&quot;font-size: 10px;&quot;&gt;Note: Other URL pattern names are not included. &lt;a href=&quot;https://github.com/Jasmin1117/Integrative-Programming-and-Technologies-Act/blob/a0c724d7721e72b1a77a9e88cee2ff3ab92f09ae/connectly_project/posts/urls.py#L18&quot;&gt;You can view the full list of URL patterns here&lt;/a&gt;—we&#39;re only showing the ones related to caching and required by TA. We can add the entire pattern names with diagrams if required.&lt;/font&gt;" style="shape=note;whiteSpace=wrap;html=1;backgroundOutline=1;darkOpacity=0.05;" vertex="1" parent="WIyWlLk6GJQsqaUBKTNV-1">
          <mxGeometry x="2690" y="747.5" width="170" height="135" as="geometry" />
        </mxCell>
        <mxCell id="cD0JJt_eKA0-qdBhpxKM-157" style="edgeStyle=orthogonalEdgeStyle;rounded=0;orthogonalLoop=1;jettySize=auto;html=1;entryX=0.376;entryY=-0.046;entryDx=0;entryDy=0;entryPerimeter=0;" edge="1" parent="WIyWlLk6GJQsqaUBKTNV-1" source="cD0JJt_eKA0-qdBhpxKM-131" target="cD0JJt_eKA0-qdBhpxKM-139">
          <mxGeometry relative="1" as="geometry" />
        </mxCell>
        <mxCell id="cD0JJt_eKA0-qdBhpxKM-158" style="edgeStyle=orthogonalEdgeStyle;rounded=0;orthogonalLoop=1;jettySize=auto;html=1;entryX=0;entryY=0.5;entryDx=0;entryDy=0;entryPerimeter=0;jumpStyle=arc;" edge="1" parent="WIyWlLk6GJQsqaUBKTNV-1" source="cD0JJt_eKA0-qdBhpxKM-88" target="cD0JJt_eKA0-qdBhpxKM-139">
          <mxGeometry relative="1" as="geometry">
            <Array as="points">
              <mxPoint x="1850" y="1930" />
              <mxPoint x="2193" y="1930" />
              <mxPoint x="2193" y="1940" />
            </Array>
          </mxGeometry>
        </mxCell>
      </root>
    </mxGraphModel>
  </diagram>
</mxfile>
